<svg width="40" height="40" viewBox="0 0 40 40" fill="none" xmlns="http://www.w3.org/2000/svg">
<path fill-rule="evenodd" clip-rule="evenodd" d="M20 0C8.95431 0 0 8.95431 0 20C0 31.0457 8.95431 40 20 40C31.0457 40 40 31.0457 40 20C40 8.95431 31.0457 0 20 0ZM13.827 10C12.1277 10 10.7501 11.3776 10.7501 13.0769V14.6154C10.7501 15.4651 11.4389 16.1538 12.2886 16.1538H26.904C27.7536 16.1538 28.4424 15.4651 28.4424 14.6154V13.8462C28.4424 11.722 26.7204 10 24.5963 10H13.827ZM11.3484 24.6154C11.018 24.6154 10.7501 24.8832 10.7501 25.2137C10.7501 27.8571 12.893 30 15.5364 30H26.904C28.1785 30 29.2117 28.9668 29.2117 27.6923V25.6109C29.2117 24.7329 28.8366 23.8968 28.181 23.313L22.4249 18.125C22.2841 17.9996 22.102 17.9375 21.9134 17.9375H14.6383C13.9477 17.9375 13.6069 18.7687 14.1021 19.25L18.9026 23.2946C19.3978 23.7759 19.057 24.6154 18.3664 24.6154H11.3484Z" fill="#EFF4FF"/>
</svg>
